<svg width="17" height="17" viewBox="0 0 17 17" fill="none" xmlns="http://www.w3.org/2000/svg">
<path fill-rule="evenodd" clip-rule="evenodd" d="M11.4936 6.56781C11.4936 9.2883 9.28824 11.4937 6.56776 11.4937C3.84731 11.4937 1.64194 9.2883 1.64194 6.56781C1.64194 3.84733 3.84731 1.64195 6.56776 1.64195C9.28824 1.64195 11.4936 3.84733 11.4936 6.56781ZM10.5952 11.7563C9.48298 12.6208 8.08547 13.1356 6.56776 13.1356C2.94049 13.1356 0 10.1951 0 6.56781C0 2.94051 2.94049 0 6.56776 0C10.195 0 13.1355 2.94051 13.1355 6.56781C13.1355 8.08552 12.6207 9.48304 11.7562 10.5952L17 15.839L15.8389 17L10.5952 11.7563Z" fill="#09101F"/>
</svg>
